<svg width="253" height="47" viewBox="0 0 253 47" fill="none" xmlns="http://www.w3.org/2000/svg">
<path d="M39.12 34.416C39.536 34.416 39.856 34.608 40.08 34.992C40.336 35.376 40.464 35.904 40.464 36.576C40.464 37.824 40.16 38.816 39.552 39.552C37.76 41.696 36.016 43.2 34.32 44.064C32.656 44.928 30.64 45.36 28.272 45.36C26.608 45.36 25.072 45.152 23.664 44.736C22.256 44.32 20.544 43.696 18.528 42.864C16.704 42.064 14.944 41.408 13.248 40.896C11.616 43.872 9.168 45.36 5.904 45.36C4.112 45.36 2.688 44.96 1.632 44.16C0.544 43.328 0 42.272 0 40.992C0 39.424 0.752 38.128 2.256 37.104C3.76 36.048 5.76 35.52 8.256 35.52H8.88L9.744 21.552C9.936 18.352 10.512 15.712 11.472 13.632C12.432 11.552 13.76 9.776 15.456 8.304C16.928 7.024 18.608 6.064 20.496 5.424C22.384 4.752 24.384 4.416 26.496 4.416C29.952 4.416 32.608 5.312 34.464 7.104C36.32 8.896 37.248 11.232 37.248 14.112C37.248 16.064 36.896 17.648 36.192 18.864C35.488 20.048 34.512 20.64 33.264 20.64C32.368 20.64 31.664 20.432 31.152 20.016C30.64 19.568 30.384 18.944 30.384 18.144C30.384 17.856 30.448 17.328 30.576 16.56C30.768 15.664 30.864 14.864 30.864 14.16C30.864 12.816 30.464 11.76 29.664 10.992C28.896 10.192 27.712 9.792 26.112 9.792C23.296 9.792 21.12 10.72 19.584 12.576C18.048 14.4 17.072 17.28 16.656 21.216L15.552 32.112C15.392 33.648 15.184 34.976 14.928 36.096C16.976 36.448 19.536 37.008 22.608 37.776C24.4 38.224 25.776 38.544 26.736 38.736C27.696 38.928 28.544 39.024 29.28 39.024C31.136 39.024 32.72 38.72 34.032 38.112C35.376 37.472 36.64 36.464 37.824 35.088C38.208 34.64 38.64 34.416 39.12 34.416Z" fill="#A959CA"/>
<path d="M42.4729 45.36C40.4889 45.36 38.9049 44.64 37.7209 43.2C36.5369 41.76 35.9449 39.872 35.9449 37.536C35.9449 34.976 36.5369 32.56 37.7209 30.288C38.9049 27.984 40.4729 26.144 42.4249 24.768C44.4089 23.36 46.5049 22.656 48.7129 22.656C49.4169 22.656 49.8809 22.8 50.1049 23.088C50.3609 23.344 50.5689 23.824 50.7289 24.528C51.4009 24.4 52.1049 24.336 52.8409 24.336C54.4089 24.336 55.1929 24.896 55.1929 26.016C55.1929 26.688 54.9529 28.288 54.4729 30.816C53.7369 34.496 53.3689 37.056 53.3689 38.496C53.3689 38.976 53.4809 39.36 53.7049 39.648C53.9609 39.936 54.2809 40.08 54.6649 40.08C55.2729 40.08 56.0089 39.696 56.8729 38.928C57.7369 38.128 58.9049 36.848 60.3769 35.088C60.7609 34.64 61.1929 34.416 61.6729 34.416C62.0889 34.416 62.4089 34.608 62.6329 34.992C62.8889 35.376 63.0169 35.904 63.0169 36.576C63.0169 37.856 62.7129 38.848 62.1049 39.552C60.7929 41.184 59.4009 42.56 57.9289 43.68C56.4569 44.8 55.0329 45.36 53.6569 45.36C52.6009 45.36 51.6249 45.008 50.7289 44.304C49.8649 43.568 49.2089 42.576 48.7609 41.328C47.0969 44.016 45.0009 45.36 42.4729 45.36ZM44.2009 40.512C44.9049 40.512 45.5769 40.096 46.2169 39.264C46.8569 38.432 47.3209 37.328 47.6089 35.952L49.3849 27.12C48.0409 27.152 46.7929 27.664 45.6409 28.656C44.5209 29.616 43.6249 30.896 42.9529 32.496C42.2809 34.096 41.9449 35.792 41.9449 37.584C41.9449 38.576 42.1369 39.312 42.5209 39.792C42.9369 40.272 43.4969 40.512 44.2009 40.512Z" fill="#A959CA"/>
<path d="M68.0437 46.416C66.3797 46.416 65.0998 46.032 64.2038 45.264C63.3398 44.496 62.9077 43.632 62.9077 42.672C62.9077 41.84 63.2118 41.12 63.8198 40.512C64.4278 39.904 65.3238 39.6 66.5078 39.6C66.9238 39.6 67.4038 39.648 67.9478 39.744C68.5238 39.808 68.9558 39.856 69.2438 39.888C69.2118 39.056 69.0197 38.272 68.6677 37.536C68.3477 36.8 67.9318 36.096 67.4198 35.424C66.9078 34.72 66.4278 34.112 65.9798 33.6C64.9878 35.488 63.9957 37.056 63.0037 38.304C62.0437 39.552 60.9878 40.736 59.8358 41.856C59.2598 42.432 58.6517 42.72 58.0117 42.72C57.4997 42.72 57.0837 42.544 56.7637 42.192C56.4437 41.808 56.2837 41.344 56.2837 40.8C56.2837 40.16 56.5077 39.568 56.9557 39.024L57.5798 38.256C59.3398 36.08 60.6678 34.288 61.5638 32.88C62.1398 31.952 62.7158 30.848 63.2918 29.568C63.8998 28.288 64.6838 26.544 65.6438 24.336C66.2518 22.928 67.5158 22.224 69.4358 22.224C70.3318 22.224 70.9558 22.304 71.3078 22.464C71.6598 22.624 71.8358 22.88 71.8358 23.232C71.8358 23.424 71.7718 23.728 71.6438 24.144C71.5158 24.56 71.3398 24.976 71.1158 25.392C70.5398 26.544 70.2517 27.52 70.2517 28.32C70.2517 28.8 70.4117 29.328 70.7318 29.904C71.0838 30.48 71.6118 31.2 72.3158 32.064C73.3398 33.408 74.1078 34.56 74.6198 35.52C75.1638 36.448 75.4358 37.472 75.4358 38.592C75.4358 39.936 75.1158 41.216 74.4758 42.432C73.8678 43.616 73.0038 44.576 71.8838 45.312C70.7638 46.048 69.4837 46.416 68.0437 46.416Z" fill="#A959CA"/>
<path d="M129.878 24.384C130.614 24.384 131.142 24.544 131.462 24.864C131.814 25.184 131.99 25.6 131.99 26.112C131.99 26.944 131.733 27.68 131.221 28.32C130.741 28.96 129.973 29.296 128.917 29.328C126.357 29.392 124.086 29.2 122.102 28.752C119.83 33.52 117.078 37.488 113.846 40.656C110.646 43.792 107.43 45.36 104.198 45.36C100.87 45.36 98.3895 43.424 96.7575 39.552C95.1255 35.68 94.3095 30.448 94.3095 23.856C94.3095 18.224 94.7095 13.168 95.5095 8.688C95.7975 7.024 96.1975 5.904 96.7095 5.328C97.2535 4.72 98.1655 4.416 99.4455 4.416C101.558 4.416 102.614 5.328 102.614 7.152C102.614 7.344 102.582 7.696 102.518 8.208C101.558 13.968 101.077 19.184 101.077 23.856C101.077 28.752 101.478 32.48 102.278 35.04C103.11 37.568 104.342 38.832 105.974 38.832C107.638 38.832 109.445 37.68 111.397 35.376C113.349 33.072 115.141 30.176 116.773 26.688C114.821 25.472 113.349 23.904 112.357 21.984C111.365 20.032 110.869 17.792 110.869 15.264C110.869 12.736 111.253 10.608 112.021 8.88C112.821 7.12 113.894 5.808 115.238 4.944C116.614 4.08 118.134 3.648 119.798 3.648C121.846 3.648 123.462 4.384 124.646 5.856C125.861 7.328 126.47 9.344 126.47 11.904C126.47 15.584 125.67 19.6 124.07 23.952C125.766 24.24 127.702 24.384 129.878 24.384ZM115.717 14.928C115.717 18.064 116.726 20.384 118.742 21.888C119.99 18.304 120.614 15.344 120.614 13.008C120.614 11.664 120.438 10.688 120.086 10.08C119.734 9.44 119.253 9.12 118.646 9.12C117.781 9.12 117.078 9.632 116.534 10.656C115.99 11.648 115.717 13.072 115.717 14.928Z" fill="#A959CA"/>
<path d="M133.223 45.36C131.143 45.36 129.623 44.624 128.663 43.152C127.735 41.68 127.271 39.728 127.271 37.296C127.271 35.856 127.447 34.016 127.799 31.776C128.183 29.504 128.663 27.392 129.239 25.44C129.527 24.416 129.911 23.712 130.391 23.328C130.871 22.944 131.639 22.752 132.695 22.752C134.327 22.752 135.143 23.296 135.143 24.384C135.143 25.184 134.839 27.04 134.231 29.952C133.463 33.472 133.079 35.856 133.079 37.104C133.079 38.064 133.207 38.8 133.463 39.312C133.719 39.824 134.151 40.08 134.759 40.08C135.335 40.08 136.055 39.68 136.919 38.88C137.783 38.08 138.935 36.816 140.375 35.088C140.759 34.64 141.191 34.416 141.671 34.416C142.087 34.416 142.407 34.608 142.631 34.992C142.887 35.376 143.015 35.904 143.015 36.576C143.015 37.856 142.711 38.848 142.103 39.552C138.935 43.424 135.975 45.36 133.223 45.36Z" fill="#A959CA"/>
<path d="M163.611 30.384C164.027 30.384 164.347 30.592 164.571 31.008C164.795 31.424 164.907 31.952 164.907 32.592C164.907 34.128 164.443 35.04 163.515 35.328C161.595 36 159.483 36.384 157.179 36.48C156.571 39.168 155.371 41.328 153.579 42.96C151.787 44.56 149.755 45.36 147.483 45.36C145.563 45.36 143.915 44.896 142.539 43.968C141.195 43.04 140.171 41.808 139.467 40.272C138.763 38.736 138.411 37.072 138.411 35.28C138.411 32.848 138.875 30.688 139.803 28.8C140.731 26.88 142.011 25.392 143.643 24.336C145.275 23.248 147.083 22.704 149.067 22.704C151.499 22.704 153.451 23.552 154.923 25.248C156.427 26.912 157.307 28.976 157.563 31.44C159.067 31.344 160.859 31.024 162.939 30.48C163.195 30.416 163.419 30.384 163.611 30.384ZM147.867 40.272C148.891 40.272 149.771 39.856 150.507 39.024C151.275 38.192 151.787 36.992 152.043 35.424C151.051 34.752 150.283 33.872 149.739 32.784C149.227 31.696 148.971 30.544 148.971 29.328C148.971 28.816 149.019 28.304 149.115 27.792H148.875C147.595 27.792 146.523 28.416 145.659 29.664C144.827 30.88 144.411 32.608 144.411 34.848C144.411 36.608 144.747 37.952 145.419 38.88C146.123 39.808 146.939 40.272 147.867 40.272Z" fill="#A959CA"/>
<path d="M178.98 34.416C179.396 34.416 179.716 34.608 179.94 34.992C180.196 35.376 180.324 35.904 180.324 36.576C180.324 37.856 180.02 38.848 179.412 39.552C178.036 41.248 176.532 42.64 174.9 43.728C173.3 44.816 171.476 45.36 169.428 45.36C166.612 45.36 164.516 44.08 163.14 41.52C161.796 38.96 161.124 35.648 161.124 31.584C161.124 27.68 161.62 23.232 162.612 18.24C163.636 13.248 165.124 8.96 167.076 5.376C169.06 1.792 171.412 0 174.132 0C175.668 0 176.868 0.72 177.732 2.16C178.628 3.568 179.076 5.6 179.076 8.256C179.076 12.064 178.02 16.48 175.908 21.504C173.796 26.528 170.932 31.504 167.316 36.432C167.54 37.744 167.908 38.688 168.42 39.264C168.932 39.808 169.604 40.08 170.436 40.08C171.748 40.08 172.9 39.712 173.892 38.976C174.884 38.208 176.148 36.912 177.684 35.088C178.068 34.64 178.5 34.416 178.98 34.416ZM173.076 4.752C172.34 4.752 171.508 6.08 170.58 8.736C169.652 11.392 168.836 14.688 168.132 18.624C167.428 22.56 167.044 26.336 166.98 29.952C169.252 26.208 171.06 22.464 172.404 18.72C173.748 14.944 174.42 11.504 174.42 8.4C174.42 5.968 173.972 4.752 173.076 4.752Z" fill="#A959CA"/>
<path d="M197.852 34.416C198.268 34.416 198.588 34.608 198.812 34.992C199.068 35.376 199.196 35.904 199.196 36.576C199.196 37.856 198.892 38.848 198.284 39.552C197.1 40.992 195.42 42.32 193.244 43.536C191.1 44.752 188.796 45.36 186.332 45.36C182.972 45.36 180.364 44.448 178.508 42.624C176.652 40.8 175.724 38.304 175.724 35.136C175.724 32.928 176.188 30.88 177.116 28.992C178.044 27.072 179.324 25.552 180.956 24.432C182.62 23.312 184.492 22.752 186.572 22.752C188.428 22.752 189.916 23.312 191.036 24.432C192.156 25.52 192.716 27.008 192.716 28.896C192.716 31.104 191.916 33.008 190.316 34.608C188.748 36.176 186.076 37.424 182.3 38.352C183.1 39.824 184.62 40.56 186.86 40.56C188.3 40.56 189.932 40.064 191.756 39.072C193.612 38.048 195.212 36.72 196.556 35.088C196.94 34.64 197.372 34.416 197.852 34.416ZM185.756 27.456C184.572 27.456 183.564 28.144 182.732 29.52C181.932 30.896 181.532 32.56 181.532 34.512V34.608C183.42 34.16 184.908 33.488 185.996 32.592C187.084 31.696 187.628 30.656 187.628 29.472C187.628 28.864 187.452 28.384 187.1 28.032C186.78 27.648 186.332 27.456 185.756 27.456Z" fill="#A959CA"/>
<path d="M216.696 34.416C217.112 34.416 217.432 34.608 217.656 34.992C217.912 35.376 218.04 35.904 218.04 36.576C218.04 37.856 217.736 38.848 217.128 39.552C215.752 41.248 214.248 42.64 212.616 43.728C210.984 44.816 209.112 45.36 207 45.36C200.472 45.36 197.208 40.768 197.208 31.584C197.208 30.176 197.256 28.752 197.352 27.312H195.48C194.52 27.312 193.864 27.136 193.512 26.784C193.192 26.432 193.032 25.872 193.032 25.104C193.032 23.312 193.752 22.416 195.192 22.416H197.928C198.472 18.896 199.304 15.68 200.424 12.768C201.544 9.856 202.888 7.536 204.456 5.808C206.056 4.08 207.768 3.216 209.592 3.216C210.936 3.216 211.992 3.808 212.76 4.992C213.528 6.176 213.912 7.664 213.912 9.456C213.912 14.416 211.832 18.736 207.672 22.416H213.048C213.56 22.416 213.928 22.528 214.152 22.752C214.376 22.976 214.488 23.392 214.488 24C214.488 26.208 212.68 27.312 209.064 27.312H203.208C203.144 28.912 203.112 30.16 203.112 31.056C203.112 34.384 203.496 36.72 204.264 38.064C205.064 39.408 206.312 40.08 208.008 40.08C209.384 40.08 210.6 39.664 211.656 38.832C212.712 38 213.96 36.752 215.4 35.088C215.784 34.64 216.216 34.416 216.696 34.416ZM208.296 7.824C207.816 7.824 207.272 8.432 206.664 9.648C206.088 10.832 205.528 12.496 204.984 14.64C204.472 16.752 204.04 19.104 203.688 21.696C205.576 20.064 206.984 18.24 207.912 16.224C208.872 14.176 209.352 12.32 209.352 10.656C209.352 8.768 209 7.824 208.296 7.824Z" fill="#A959CA"/>
<path d="M220.035 45.36C218.051 45.36 216.467 44.64 215.283 43.2C214.099 41.76 213.507 39.872 213.507 37.536C213.507 34.976 214.099 32.56 215.283 30.288C216.467 27.984 218.035 26.144 219.987 24.768C221.971 23.36 224.067 22.656 226.275 22.656C226.979 22.656 227.443 22.8 227.667 23.088C227.923 23.344 228.131 23.824 228.291 24.528C228.963 24.4 229.667 24.336 230.403 24.336C231.971 24.336 232.755 24.896 232.755 26.016C232.755 26.688 232.515 28.288 232.035 30.816C231.299 34.496 230.931 37.056 230.931 38.496C230.931 38.976 231.043 39.36 231.267 39.648C231.523 39.936 231.843 40.08 232.227 40.08C232.835 40.08 233.571 39.696 234.435 38.928C235.299 38.128 236.467 36.848 237.939 35.088C238.323 34.64 238.755 34.416 239.235 34.416C239.651 34.416 239.971 34.608 240.195 34.992C240.451 35.376 240.579 35.904 240.579 36.576C240.579 37.856 240.275 38.848 239.667 39.552C238.355 41.184 236.963 42.56 235.491 43.68C234.019 44.8 232.595 45.36 231.219 45.36C230.163 45.36 229.187 45.008 228.291 44.304C227.427 43.568 226.771 42.576 226.323 41.328C224.659 44.016 222.563 45.36 220.035 45.36ZM221.763 40.512C222.467 40.512 223.139 40.096 223.779 39.264C224.419 38.432 224.883 37.328 225.171 35.952L226.947 27.12C225.603 27.152 224.355 27.664 223.203 28.656C222.083 29.616 221.187 30.896 220.515 32.496C219.843 34.096 219.507 35.792 219.507 37.584C219.507 38.576 219.699 39.312 220.083 39.792C220.499 40.272 221.059 40.512 221.763 40.512Z" fill="#A959CA"/>
<path d="M245.606 46.416C243.942 46.416 242.662 46.032 241.766 45.264C240.902 44.496 240.47 43.632 240.47 42.672C240.47 41.84 240.774 41.12 241.382 40.512C241.99 39.904 242.886 39.6 244.07 39.6C244.486 39.6 244.966 39.648 245.51 39.744C246.086 39.808 246.518 39.856 246.806 39.888C246.774 39.056 246.582 38.272 246.23 37.536C245.91 36.8 245.494 36.096 244.982 35.424C244.47 34.72 243.99 34.112 243.542 33.6C242.55 35.488 241.558 37.056 240.566 38.304C239.606 39.552 238.55 40.736 237.398 41.856C236.822 42.432 236.214 42.72 235.574 42.72C235.062 42.72 234.646 42.544 234.326 42.192C234.006 41.808 233.846 41.344 233.846 40.8C233.846 40.16 234.07 39.568 234.518 39.024L235.142 38.256C236.902 36.08 238.23 34.288 239.126 32.88C239.702 31.952 240.278 30.848 240.854 29.568C241.462 28.288 242.246 26.544 243.206 24.336C243.814 22.928 245.078 22.224 246.998 22.224C247.894 22.224 248.518 22.304 248.87 22.464C249.222 22.624 249.398 22.88 249.398 23.232C249.398 23.424 249.334 23.728 249.206 24.144C249.078 24.56 248.902 24.976 248.678 25.392C248.102 26.544 247.814 27.52 247.814 28.32C247.814 28.8 247.974 29.328 248.294 29.904C248.646 30.48 249.174 31.2 249.878 32.064C250.902 33.408 251.67 34.56 252.182 35.52C252.726 36.448 252.998 37.472 252.998 38.592C252.998 39.936 252.678 41.216 252.038 42.432C251.43 43.616 250.566 44.576 249.446 45.312C248.326 46.048 247.046 46.416 245.606 46.416Z" fill="#A959CA"/>
<path d="M134.032 19.488C132.688 19.488 131.68 19.184 131.008 18.576C130.336 17.936 130 17.056 130 15.936C130 14.816 130.432 13.888 131.296 13.152C132.192 12.384 133.296 12 134.608 12C135.792 12 136.752 12.288 137.488 12.864C138.224 13.44 138.592 14.256 138.592 15.312C138.592 16.592 138.176 17.616 137.344 18.384C136.512 19.12 135.408 19.488 134.032 19.488Z" fill="#F0BF41"/>
</svg>
